<svg width="42" height="41" viewBox="0 0 42 41" fill="none" xmlns="http://www.w3.org/2000/svg">
<path d="M42 0L42 13.439C42 16.2004 39.7614 18.439 37 18.439L33.6829 18.439C30.9215 18.439 28.6829 16.2004 28.6829 13.439L28.6829 5C28.6829 2.23858 30.9215 -4.84257e-07 33.6829 -3.63551e-07L42 0Z" fill="#5F6FFF"/>
<path d="M8.31708 22.5366C11.0785 22.5366 13.3171 24.7751 13.3171 27.5366L13.3171 35.9756C13.3171 38.737 11.0785 40.9756 8.31708 40.9756L2.05503e-06 40.9756L2.64247e-06 27.5366C2.76317e-06 24.7751 2.23858 22.5366 5 22.5366L8.31708 22.5366Z" fill="#7F52FF"/>
<path d="M37 22.5366C39.7614 22.5366 42 24.7751 42 27.5366L42 40.9756L22.4146 40.9756C19.6532 40.9756 17.4146 38.737 17.4146 35.9756L17.4146 27.5366C17.4146 24.7751 19.6532 22.5366 22.4146 22.5366L37 22.5366Z" fill="#2B99FF"/>
<path d="M19.5853 -2.18557e-07C22.3468 -9.78511e-08 24.5853 2.23858 24.5853 5L24.5853 13.439C24.5853 16.2005 22.3467 18.439 19.5853 18.439L4.99995 18.439C2.23853 18.439 -4.26698e-05 16.2004 -4.25491e-05 13.439L-4.19617e-05 -1.07466e-06L19.5853 -2.18557e-07Z" fill="#1028FF"/>
</svg>
